<svg xmlns="http://www.w3.org/2000/svg" viewBox="0 0 24 24">
  <path
    fill="currentColor"
    d="M12 .5C5.73.5.75 5.6.75 12.02c0 5.22 3.43 9.64 8.19 11.2.6.11.82-.27.82-.58v-2.2c-3.33.74-4.03-1.45-4.03-1.45-.55-1.41-1.34-1.79-1.34-1.79-1.1-.77.08-.76.08-.76 1.21.09 1.85 1.28 1.85 1.28 1.08 1.88 2.84 1.34 3.53 1.02.11-.8.42-1.34.76-1.65-2.66-.31-5.46-1.36-5.46-6.05 0-1.34.46-2.43 1.23-3.29-.13-.31-.54-1.57.12-3.27 0 0 1.01-.33 3.3 1.26.96-.28 1.99-.42 3.01-.42 1.02 0 2.05.14 3.01.42 2.29-1.59 3.3-1.26 3.3-1.26.66 1.7.25 2.96.12 3.27.77.86 1.23 1.95 1.23 3.29 0 4.7-2.8 5.73-5.47 6.04.43.38.82 1.12.82 2.27v3.36c0 .32.22.7.83.58 4.76-1.56 8.18-5.98 8.18-11.2C23.25 5.6 18.27.5 12 .5z"
  />
</svg>
