<svg xmlns="http://www.w3.org/2000/svg" viewBox="0 0 24 24" fill="none">
  <path
    fill="currentColor"
    d="M12 2C6.48 2 2 6.58 2 12.26c0 4.53 2.87 8.37 6.84 9.73.5.1.68-.22.68-.48
    0-.24-.01-.88-.01-1.73-2.78.62-3.37-1.37-3.37-1.37-.45-1.18-1.11-1.5-1.11-1.5
    -.91-.64.07-.63.07-.63 1.01.07 1.54 1.06 1.54 1.06.9 1.58 2.36 1.12 2.94.86
    .09-.67.35-1.12.63-1.38-2.22-.26-4.56-1.14-4.56-5.08 0-1.12.39-2.03 1.03-2.75
    -.1-.26-.45-1.3.1-2.71 0 0 .84-.27 2.75 1.05.8-.23 1.65-.34 2.5-.34.85 0 1.7.12 2.5.34
    1.91-1.32 2.75-1.05 2.75-1.05.55 1.41.2 2.45.1 2.71.64.72 1.03 1.63 1.03 2.75
    0 3.95-2.34 4.82-4.57 5.08.36.32.68.96.68 1.94 0 1.4-.01 2.53-.01 2.88
    0 .27.18.59.69.48A10.02 10.02 0 0 0 22 12.26C22 6.58 17.52 2 12 2Z"
  />
</svg>
